<svg width="174" height="58" viewBox="0 0 174 58" fill="none" xmlns="http://www.w3.org/2000/svg">
<path d="M57.4609 28.6606C58.4219 28.6606 58.9102 28.0356 58.9258 26.7856H62.043C62.0273 28.1685 61.6016 29.2856 60.7656 30.1372C59.9297 30.9888 58.8516 31.4146 57.5312 31.4146C55.8984 31.4146 54.6523 30.9067 53.793 29.8911C52.9336 28.8755 52.4961 27.3794 52.4805 25.4028V24.395C52.4805 22.4028 52.9023 20.8833 53.7461 19.8364C54.5977 18.7896 55.8516 18.2661 57.5078 18.2661C58.9062 18.2661 60.0078 18.6997 60.8125 19.5669C61.6172 20.4263 62.0273 21.6489 62.043 23.2349H58.9258C58.918 22.5239 58.8008 21.9771 58.5742 21.5942C58.3477 21.2114 57.9727 21.02 57.4492 21.02C56.8711 21.02 56.457 21.2271 56.207 21.6411C55.957 22.0474 55.8242 22.8403 55.8086 24.02V25.3091C55.8086 26.3403 55.8594 27.063 55.9609 27.4771C56.0625 27.8833 56.2305 28.1841 56.4648 28.3794C56.6992 28.5669 57.0312 28.6606 57.4609 28.6606ZM67.1523 19.6138C67.8711 18.7153 68.7539 18.2661 69.8008 18.2661C70.957 18.2661 71.8359 18.6724 72.4375 19.4849C73.0391 20.2974 73.3438 21.5083 73.3516 23.1177V31.1802H70.0234V23.1528C70.0234 22.4106 69.9062 21.8755 69.6719 21.5474C69.4453 21.2114 69.0742 21.0435 68.5586 21.0435C67.957 21.0435 67.4883 21.3208 67.1523 21.8755V31.1802H63.8359V13.1802H67.1523V19.6138ZM81.7539 31.1802C81.6602 30.9849 81.5664 30.6567 81.4727 30.1958C80.8789 31.0083 80.0742 31.4146 79.0586 31.4146C77.9961 31.4146 77.1133 31.063 76.4102 30.3599C75.7148 29.6567 75.3672 28.7466 75.3672 27.6294C75.3672 26.3013 75.7891 25.2739 76.6328 24.5474C77.4844 23.8208 78.707 23.4497 80.3008 23.4341H81.3086V22.4146C81.3086 21.8442 81.2109 21.4419 81.0156 21.2075C80.8203 20.9731 80.5352 20.856 80.1602 20.856C79.332 20.856 78.918 21.3403 78.918 22.3091H75.6016C75.6016 21.1372 76.0391 20.1724 76.9141 19.4146C77.7969 18.6489 78.9102 18.2661 80.2539 18.2661C81.6445 18.2661 82.7188 18.6294 83.4766 19.356C84.2422 20.0747 84.625 21.106 84.625 22.4497V28.4146C84.6406 29.5083 84.7969 30.3638 85.0938 30.981V31.1802H81.7539ZM79.7969 28.813C80.1641 28.813 80.4766 28.7388 80.7344 28.5903C80.9922 28.4419 81.1836 28.2661 81.3086 28.063V25.4263H80.5117C79.9492 25.4263 79.5039 25.606 79.1758 25.9653C78.8555 26.3247 78.6953 26.8052 78.6953 27.4067C78.6953 28.3442 79.0625 28.813 79.7969 28.813ZM90.1445 18.5005L90.2383 19.6724C90.9805 18.7349 91.9609 18.2661 93.1797 18.2661C94.4453 18.2661 95.3398 18.8364 95.8633 19.9771C96.5898 18.8364 97.625 18.2661 98.9688 18.2661C101.188 18.2661 102.324 19.8013 102.379 22.8716V31.1802H99.0625V23.0825C99.0625 22.3481 98.9609 21.8247 98.7578 21.5122C98.5547 21.1997 98.2109 21.0435 97.7266 21.0435C97.1094 21.0435 96.6484 21.4224 96.3438 22.1802L96.3672 22.5786V31.1802H93.0508V23.106C93.0508 22.3794 92.9531 21.856 92.7578 21.5356C92.5625 21.2075 92.2148 21.0435 91.7148 21.0435C91.1445 21.0435 90.6914 21.3521 90.3555 21.9692V31.1802H87.0391V18.5005H90.1445ZM114.719 25.2388C114.719 27.231 114.375 28.7583 113.688 29.8208C113.008 30.8833 111.992 31.4146 110.641 31.4146C109.609 31.4146 108.781 30.9966 108.156 30.1606V36.0552H104.84V18.5005H107.91L108.027 19.6606C108.66 18.731 109.523 18.2661 110.617 18.2661C111.969 18.2661 112.984 18.7583 113.664 19.7427C114.352 20.7271 114.703 22.2349 114.719 24.2661V25.2388ZM111.414 24.4067C111.414 23.1802 111.277 22.313 111.004 21.8052C110.738 21.2974 110.285 21.0435 109.645 21.0435C108.965 21.0435 108.469 21.3286 108.156 21.8989V27.8403C108.453 28.3872 108.957 28.6606 109.668 28.6606C110.324 28.6606 110.777 28.3833 111.027 27.8286C111.285 27.2739 111.414 26.4106 111.414 25.2388V24.4067ZM120.203 31.1802H116.875V18.5005H120.203V31.1802ZM116.723 15.2192C116.723 14.7036 116.887 14.2817 117.215 13.9536C117.543 13.6255 117.98 13.4614 118.527 13.4614C119.074 13.4614 119.512 13.6255 119.84 13.9536C120.168 14.2817 120.332 14.7036 120.332 15.2192C120.332 15.7271 120.168 16.1489 119.84 16.4849C119.52 16.8208 119.082 16.9888 118.527 16.9888C117.973 16.9888 117.531 16.8208 117.203 16.4849C116.883 16.1489 116.723 15.7271 116.723 15.2192ZM122.383 24.4302C122.383 22.5083 122.836 21.0005 123.742 19.9067C124.648 18.813 125.902 18.2661 127.504 18.2661C129.121 18.2661 130.383 18.813 131.289 19.9067C132.195 21.0005 132.648 22.5161 132.648 24.4536V25.2622C132.648 27.1919 132.199 28.6997 131.301 29.7856C130.402 30.8716 129.145 31.4146 127.527 31.4146C125.902 31.4146 124.637 30.8716 123.73 29.7856C122.832 28.6919 122.383 27.1763 122.383 25.2388V24.4302ZM125.711 25.2622C125.711 27.5278 126.316 28.6606 127.527 28.6606C128.645 28.6606 129.246 27.7153 129.332 25.8247L129.344 24.4302C129.344 23.2739 129.184 22.4185 128.863 21.8638C128.543 21.3013 128.09 21.02 127.504 21.02C126.941 21.02 126.5 21.3013 126.18 21.8638C125.867 22.4185 125.711 23.2739 125.711 24.4302V25.2622ZM137.758 18.5005L137.852 19.7544C138.602 18.7622 139.582 18.2661 140.793 18.2661C142.973 18.2661 144.094 19.7935 144.156 22.8481V31.1802H140.828V23.0942C140.828 22.3755 140.719 21.856 140.5 21.5356C140.289 21.2075 139.914 21.0435 139.375 21.0435C138.773 21.0435 138.305 21.3521 137.969 21.9692V31.1802H134.641V18.5005H137.758Z" fill="#020532"/>
<g filter="url(#filter0_d)">
<path d="M34.1875 31H32.1016V16.5508L28.5156 18.1562V16.1875L33.8594 13.8555H34.1875V31ZM46.0469 31H43.9609V16.5508L40.375 18.1562V16.1875L45.7188 13.8555H46.0469V31Z" fill="#020532"/>
</g>
<mask id="path-3-inside-1" fill="white">
<path fill-rule="evenodd" clip-rule="evenodd" d="M25.329 3.72527C25.329 1.49949 23.4993 -0.331263 21.3065 0.0506828C9.21223 2.15732 0 13.0157 0 26.0941C0 40.6817 11.4608 52.5072 25.5985 52.5072C34.6362 52.5072 42.5801 47.6745 47.1352 40.377C48.6014 38.0281 46.6932 35.2692 43.9242 35.2692H29.329C27.1199 35.2692 25.329 33.4783 25.329 31.2692V3.72527Z"/>
</mask>
<path fill-rule="evenodd" clip-rule="evenodd" d="M25.329 3.72527C25.329 1.49949 23.4993 -0.331263 21.3065 0.0506828C9.21223 2.15732 0 13.0157 0 26.0941C0 40.6817 11.4608 52.5072 25.5985 52.5072C34.6362 52.5072 42.5801 47.6745 47.1352 40.377C48.6014 38.0281 46.6932 35.2692 43.9242 35.2692H29.329C27.1199 35.2692 25.329 33.4783 25.329 31.2692V3.72527Z" fill="#020532"/>
<path d="M2 26.0941C2 13.9592 10.5411 3.95597 21.6497 2.02102L20.9633 -1.91965C7.8834 0.358672 -2 12.0721 -2 26.0941H2ZM25.5985 50.5072C12.624 50.5072 2 39.6366 2 26.0941H-2C-2 41.7267 10.2977 54.5072 25.5985 54.5072V50.5072ZM45.4386 39.318C41.223 46.0715 33.8989 50.5072 25.5985 50.5072V54.5072C35.3735 54.5072 43.9371 49.2776 48.8318 41.436L45.4386 39.318ZM43.9242 33.2692H29.329V37.2692H43.9242V33.2692ZM27.329 31.2692V3.72527H23.329V31.2692H27.329ZM29.329 33.2692C28.2245 33.2692 27.329 32.3738 27.329 31.2692H23.329C23.329 34.5829 26.0153 37.2692 29.329 37.2692V33.2692ZM48.8318 41.436C50.0058 39.5552 49.8273 37.439 48.7942 35.8514C47.7843 34.2994 45.9834 33.2692 43.9242 33.2692V37.2692C44.634 37.2692 45.1717 37.6184 45.4416 38.0331C45.6883 38.4122 45.7307 38.8499 45.4386 39.318L48.8318 41.436ZM21.6497 2.02102C22.3972 1.89081 23.329 2.50526 23.329 3.72527H27.329C27.329 0.493727 24.6013 -2.55334 20.9633 -1.91965L21.6497 2.02102Z" fill="#020532" mask="url(#path-3-inside-1)"/>
<path d="M69.1826 49.1367C68.6038 49.1185 68.1527 48.8701 67.8291 48.3916L67.1729 51.8438H65.2861L67.0635 41.6035L68.7861 41.5967L68.6836 42.2803C69.1348 41.7243 69.6475 41.4508 70.2217 41.46C70.8688 41.4691 71.3519 41.7152 71.6709 42.1982C71.9899 42.6813 72.1335 43.374 72.1016 44.2764C72.0651 45.3382 71.9284 46.2406 71.6914 46.9834C71.4544 47.7217 71.1217 48.2708 70.6934 48.6309C70.2695 48.9909 69.766 49.1595 69.1826 49.1367ZM70.2285 44.2559C70.2285 43.8275 70.1715 43.5267 70.0576 43.3535C69.9482 43.1803 69.7751 43.0892 69.5381 43.0801C69.2008 43.071 68.8932 43.2373 68.6152 43.5791L68 47.0654C68.1458 47.3617 68.401 47.5189 68.7656 47.5371C69.4674 47.5736 69.9004 47.029 70.0645 45.9033L70.2148 44.5088L70.2285 44.2559ZM76.0938 49C76.0573 48.8451 76.0391 48.6536 76.0391 48.4258C75.6198 48.9043 75.1413 49.1436 74.6035 49.1436C74.0339 49.1344 73.5758 48.9248 73.2295 48.5146C72.8877 48.1045 72.7305 47.5941 72.7578 46.9834C72.7988 46.1995 73.1042 45.5866 73.6738 45.1445C74.2435 44.6979 75.0091 44.4746 75.9707 44.4746H76.5244L76.6133 43.873L76.6338 43.5654C76.6338 43.1689 76.4743 42.9707 76.1553 42.9707C75.7132 42.957 75.4443 43.2396 75.3486 43.8184L73.4688 43.832C73.5098 43.1302 73.8014 42.5583 74.3438 42.1162C74.8861 41.6696 75.5469 41.4508 76.3262 41.46C77.0599 41.4782 77.6204 41.7106 78.0078 42.1572C78.3997 42.5993 78.5592 43.1849 78.4863 43.9141L77.8848 47.6738L77.8574 48.0361C77.8392 48.3551 77.8711 48.6354 77.9531 48.877L77.9463 49H76.0938ZM75.123 47.6328C75.4557 47.6419 75.7656 47.4961 76.0527 47.1953L76.3877 45.6299H75.9775C75.613 45.6481 75.319 45.7712 75.0957 45.999C74.8724 46.2269 74.738 46.514 74.6924 46.8604L74.6855 47.1201C74.6855 47.266 74.722 47.3867 74.7949 47.4824C74.8724 47.5781 74.9818 47.6283 75.123 47.6328ZM81.0225 49H79.1289L80.4141 41.6035H82.3076L81.0225 49ZM80.6602 39.7236C80.6602 39.4092 80.7581 39.154 80.9541 38.958C81.1546 38.7575 81.3984 38.6572 81.6855 38.6572C81.9681 38.6481 82.2074 38.7415 82.4033 38.9375C82.6038 39.1289 82.7041 39.3682 82.7041 39.6553C82.7041 39.9743 82.6038 40.234 82.4033 40.4346C82.2074 40.6305 81.9658 40.7285 81.6787 40.7285C81.387 40.7376 81.1432 40.6465 80.9473 40.4551C80.7559 40.2591 80.6602 40.0153 80.6602 39.7236ZM85.7939 43.7842L86.9697 41.6035H89.041L86.7852 45.3086L87.8721 49H85.9375L85.4248 46.6963L84.1875 49H82.1025L84.4473 45.1309L83.4082 41.6035H85.3428L85.7939 43.7842ZM92.2812 49C92.2448 48.8451 92.2266 48.6536 92.2266 48.4258C91.8073 48.9043 91.3288 49.1436 90.791 49.1436C90.2214 49.1344 89.7633 48.9248 89.417 48.5146C89.0752 48.1045 88.918 47.5941 88.9453 46.9834C88.9863 46.1995 89.2917 45.5866 89.8613 45.1445C90.431 44.6979 91.1966 44.4746 92.1582 44.4746H92.7119L92.8008 43.873L92.8213 43.5654C92.8213 43.1689 92.6618 42.9707 92.3428 42.9707C91.9007 42.957 91.6318 43.2396 91.5361 43.8184L89.6562 43.832C89.6973 43.1302 89.9889 42.5583 90.5312 42.1162C91.0736 41.6696 91.7344 41.4508 92.5137 41.46C93.2474 41.4782 93.8079 41.7106 94.1953 42.1572C94.5872 42.5993 94.7467 43.1849 94.6738 43.9141L94.0723 47.6738L94.0449 48.0361C94.0267 48.3551 94.0586 48.6354 94.1406 48.877L94.1338 49H92.2812ZM91.3105 47.6328C91.6432 47.6419 91.9531 47.4961 92.2402 47.1953L92.5752 45.6299H92.165C91.8005 45.6481 91.5065 45.7712 91.2832 45.999C91.0599 46.2269 90.9255 46.514 90.8799 46.8604L90.873 47.1201C90.873 47.266 90.9095 47.3867 90.9824 47.4824C91.0599 47.5781 91.1693 47.6283 91.3105 47.6328ZM95.1318 38.5889C95.0954 39.1312 94.9473 39.5755 94.6875 39.9219C94.4277 40.2682 94.0996 40.4368 93.7031 40.4277C93.5527 40.4277 93.4183 40.3936 93.2998 40.3252L92.6572 39.9287C92.5068 39.8467 92.3587 39.8102 92.2129 39.8193C91.9577 39.833 91.7777 40.0518 91.6729 40.4756L90.5996 40.4141C90.6361 39.8717 90.7865 39.4251 91.0508 39.0742C91.3197 38.7233 91.6501 38.5524 92.042 38.5615C92.2334 38.5661 92.484 38.6732 92.7939 38.8828C93.1038 39.0879 93.3545 39.1836 93.5459 39.1699C93.7646 39.1562 93.9264 39.0059 94.0312 38.7188L94.0996 38.5137L95.1318 38.5889ZM99.124 41.4668C99.8714 41.485 100.455 41.738 100.874 42.2256C101.293 42.7132 101.523 43.3672 101.564 44.1875V44.6729C101.505 46.1038 101.161 47.2135 100.532 48.002C99.9079 48.7858 99.0921 49.1641 98.085 49.1367C97.4971 49.123 97.0117 48.9658 96.6289 48.665C96.2461 48.3597 95.9704 47.9382 95.8018 47.4004C95.6377 46.8626 95.5921 46.2451 95.665 45.5479L95.7061 45.1787C95.8382 44.0166 96.2096 43.1029 96.8203 42.4375C97.431 41.7676 98.1989 41.444 99.124 41.4668ZM97.5244 46.3203C97.5244 47.1087 97.766 47.5166 98.249 47.5439C98.9053 47.5804 99.3314 47.0791 99.5273 46.04L99.6025 45.5479C99.6663 44.8916 99.6982 44.4701 99.6982 44.2832C99.6982 43.4993 99.4499 43.0915 98.9531 43.0596C98.5931 43.0413 98.2969 43.2077 98.0645 43.5586C97.832 43.9095 97.6839 44.4176 97.6201 45.083C97.5563 45.7438 97.5244 46.1562 97.5244 46.3203ZM108.653 49.1367C108.075 49.1185 107.623 48.8701 107.3 48.3916L106.644 51.8438H104.757L106.534 41.6035L108.257 41.5967L108.154 42.2803C108.605 41.7243 109.118 41.4508 109.692 41.46C110.34 41.4691 110.823 41.7152 111.142 42.1982C111.461 42.6813 111.604 43.374 111.572 44.2764C111.536 45.3382 111.399 46.2406 111.162 46.9834C110.925 47.7217 110.592 48.2708 110.164 48.6309C109.74 48.9909 109.237 49.1595 108.653 49.1367ZM109.699 44.2559C109.699 43.8275 109.642 43.5267 109.528 43.3535C109.419 43.1803 109.246 43.0892 109.009 43.0801C108.672 43.071 108.364 43.2373 108.086 43.5791L107.471 47.0654C107.617 47.3617 107.872 47.5189 108.236 47.5371C108.938 47.5736 109.371 47.029 109.535 45.9033L109.686 44.5088L109.699 44.2559ZM115.093 49.1367C114.496 49.1322 113.988 48.9863 113.568 48.6992C113.154 48.4121 112.853 48.0111 112.666 47.4961C112.484 46.9766 112.429 46.3864 112.502 45.7256L112.563 45.2197C112.714 43.9938 113.085 43.0573 113.678 42.4102C114.275 41.7585 115.034 41.444 115.954 41.4668C116.629 41.485 117.157 41.6969 117.54 42.1025C117.927 42.5036 118.153 43.0664 118.217 43.791C118.253 44.224 118.244 44.6478 118.189 45.0625L118.06 45.9512H114.368C114.345 46.1471 114.339 46.3363 114.348 46.5186C114.38 47.1748 114.701 47.5098 115.312 47.5234C115.881 47.5417 116.433 47.3252 116.966 46.874L117.602 48.0498C117.351 48.3916 117 48.6605 116.549 48.8564C116.102 49.0524 115.617 49.1458 115.093 49.1367ZM115.77 43.0596C115.227 43.0368 114.849 43.3831 114.635 44.0986L114.498 44.5977L116.378 44.6045C116.424 44.3402 116.449 44.126 116.453 43.9619C116.471 43.3831 116.243 43.0824 115.77 43.0596ZM120.603 49H118.709L120.527 38.5H122.428L120.603 49ZM126.017 41.4668C126.764 41.485 127.347 41.738 127.767 42.2256C128.186 42.7132 128.416 43.3672 128.457 44.1875V44.6729C128.398 46.1038 128.054 47.2135 127.425 48.002C126.8 48.7858 125.985 49.1641 124.978 49.1367C124.39 49.123 123.904 48.9658 123.521 48.665C123.139 48.3597 122.863 47.9382 122.694 47.4004C122.53 46.8626 122.485 46.2451 122.558 45.5479L122.599 45.1787C122.731 44.0166 123.102 43.1029 123.713 42.4375C124.324 41.7676 125.091 41.444 126.017 41.4668ZM124.417 46.3203C124.417 47.1087 124.659 47.5166 125.142 47.5439C125.798 47.5804 126.224 47.0791 126.42 46.04L126.495 45.5479C126.559 44.8916 126.591 44.4701 126.591 44.2832C126.591 43.4993 126.342 43.0915 125.846 43.0596C125.486 43.0413 125.189 43.2077 124.957 43.5586C124.725 43.9095 124.576 44.4176 124.513 45.083C124.449 45.7438 124.417 46.1562 124.417 46.3203ZM132.572 49L133.604 43.0596H132.736L132.989 41.6035L133.857 41.5967L133.939 40.9746C134.049 40.1406 134.338 39.4912 134.808 39.0264C135.277 38.557 135.883 38.3268 136.626 38.3359C136.849 38.3359 137.15 38.3815 137.528 38.4727L137.371 40.0312C137.202 39.9811 137.05 39.9561 136.913 39.9561C136.334 39.9561 135.979 40.2933 135.847 40.9678L135.751 41.6035H136.872L136.619 43.0596H135.498L134.466 49H132.572ZM140.393 48.3232C139.928 48.8792 139.385 49.1527 138.766 49.1436C138.283 49.139 137.895 48.9772 137.604 48.6582C137.312 48.3346 137.143 47.8949 137.098 47.3389C137.07 47.0153 137.073 46.6986 137.104 46.3887L137.904 41.6035H139.791L138.991 46.416L138.971 46.751C138.952 46.9788 138.984 47.1634 139.066 47.3047C139.153 47.446 139.281 47.5189 139.449 47.5234C139.823 47.5371 140.165 47.348 140.475 46.9561L141.404 41.6035H143.312L142.026 49H140.27L140.393 48.3232ZM147.215 39.7852L146.9 41.6035H147.857L147.604 43.0596H146.647L146.019 46.7852L145.998 47.0039C145.98 47.3092 146.107 47.4665 146.381 47.4756C146.458 47.4801 146.613 47.4688 146.846 47.4414L146.675 48.959C146.392 49.0729 146.064 49.1299 145.69 49.1299C145.139 49.1208 144.724 48.9225 144.446 48.5352C144.168 48.1478 144.061 47.6191 144.125 46.9492L144.761 43.0596H143.927L144.18 41.6035H145.007L145.328 39.7852H147.215ZM150.708 49.1367C150.111 49.1322 149.603 48.9863 149.184 48.6992C148.769 48.4121 148.468 48.0111 148.281 47.4961C148.099 46.9766 148.044 46.3864 148.117 45.7256L148.179 45.2197C148.329 43.9938 148.701 43.0573 149.293 42.4102C149.89 41.7585 150.649 41.444 151.569 41.4668C152.244 41.485 152.772 41.6969 153.155 42.1025C153.543 42.5036 153.768 43.0664 153.832 43.791C153.868 44.224 153.859 44.6478 153.805 45.0625L153.675 45.9512H149.983C149.961 46.1471 149.954 46.3363 149.963 46.5186C149.995 47.1748 150.316 47.5098 150.927 47.5234C151.496 47.5417 152.048 47.3252 152.581 46.874L153.217 48.0498C152.966 48.3916 152.615 48.6605 152.164 48.8564C151.717 49.0524 151.232 49.1458 150.708 49.1367ZM151.385 43.0596C150.842 43.0368 150.464 43.3831 150.25 44.0986L150.113 44.5977L151.993 44.6045C152.039 44.3402 152.064 44.126 152.068 43.9619C152.087 43.3831 151.859 43.0824 151.385 43.0596ZM157.653 49.1436C157.024 49.1162 156.55 48.82 156.231 48.2549L155.992 49H154.235L156.061 38.5H157.947L157.229 42.2119C157.658 41.7015 158.143 41.4508 158.686 41.46C159.333 41.4691 159.813 41.7106 160.128 42.1846C160.447 42.6585 160.59 43.3467 160.559 44.249C160.522 45.3018 160.388 46.2109 160.155 46.9766C159.927 47.7376 159.602 48.2959 159.178 48.6514C158.754 49.0023 158.246 49.1663 157.653 49.1436ZM158.699 44.2695C158.713 43.8457 158.663 43.5449 158.549 43.3672C158.435 43.1895 158.255 43.096 158.009 43.0869C157.658 43.0732 157.341 43.2555 157.059 43.6338L156.471 47.0244C156.607 47.3525 156.865 47.5257 157.243 47.5439C157.95 47.5804 158.371 47.0814 158.508 46.0469L158.569 45.541L158.699 44.2695ZM164.927 41.4668C165.674 41.485 166.257 41.738 166.677 42.2256C167.096 42.7132 167.326 43.3672 167.367 44.1875V44.6729C167.308 46.1038 166.964 47.2135 166.335 48.002C165.711 48.7858 164.895 49.1641 163.888 49.1367C163.3 49.123 162.814 48.9658 162.432 48.665C162.049 48.3597 161.773 47.9382 161.604 47.4004C161.44 46.8626 161.395 46.2451 161.468 45.5479L161.509 45.1787C161.641 44.0166 162.012 43.1029 162.623 42.4375C163.234 41.7676 164.002 41.444 164.927 41.4668ZM163.327 46.3203C163.327 47.1087 163.569 47.5166 164.052 47.5439C164.708 47.5804 165.134 47.0791 165.33 46.04L165.405 45.5479C165.469 44.8916 165.501 44.4701 165.501 44.2832C165.501 43.4993 165.253 43.0915 164.756 43.0596C164.396 43.0413 164.1 43.2077 163.867 43.5586C163.635 43.9095 163.487 44.4176 163.423 45.083C163.359 45.7438 163.327 46.1562 163.327 46.3203ZM169.835 49H167.941L169.76 38.5H171.66L169.835 49Z" fill="black"/>
<path d="M57.4609 28.6606C58.4219 28.6606 58.9102 28.0356 58.9258 26.7856H62.043C62.0273 28.1685 61.6016 29.2856 60.7656 30.1372C59.9297 30.9888 58.8516 31.4146 57.5312 31.4146C55.8984 31.4146 54.6523 30.9067 53.793 29.8911C52.9336 28.8755 52.4961 27.3794 52.4805 25.4028V24.395C52.4805 22.4028 52.9023 20.8833 53.7461 19.8364C54.5977 18.7896 55.8516 18.2661 57.5078 18.2661C58.9062 18.2661 60.0078 18.6997 60.8125 19.5669C61.6172 20.4263 62.0273 21.6489 62.043 23.2349H58.9258C58.918 22.5239 58.8008 21.9771 58.5742 21.5942C58.3477 21.2114 57.9727 21.02 57.4492 21.02C56.8711 21.02 56.457 21.2271 56.207 21.6411C55.957 22.0474 55.8242 22.8403 55.8086 24.02V25.3091C55.8086 26.3403 55.8594 27.063 55.9609 27.4771C56.0625 27.8833 56.2305 28.1841 56.4648 28.3794C56.6992 28.5669 57.0312 28.6606 57.4609 28.6606ZM67.1523 19.6138C67.8711 18.7153 68.7539 18.2661 69.8008 18.2661C70.957 18.2661 71.8359 18.6724 72.4375 19.4849C73.0391 20.2974 73.3438 21.5083 73.3516 23.1177V31.1802H70.0234V23.1528C70.0234 22.4106 69.9062 21.8755 69.6719 21.5474C69.4453 21.2114 69.0742 21.0435 68.5586 21.0435C67.957 21.0435 67.4883 21.3208 67.1523 21.8755V31.1802H63.8359V13.1802H67.1523V19.6138ZM81.7539 31.1802C81.6602 30.9849 81.5664 30.6567 81.4727 30.1958C80.8789 31.0083 80.0742 31.4146 79.0586 31.4146C77.9961 31.4146 77.1133 31.063 76.4102 30.3599C75.7148 29.6567 75.3672 28.7466 75.3672 27.6294C75.3672 26.3013 75.7891 25.2739 76.6328 24.5474C77.4844 23.8208 78.707 23.4497 80.3008 23.4341H81.3086V22.4146C81.3086 21.8442 81.2109 21.4419 81.0156 21.2075C80.8203 20.9731 80.5352 20.856 80.1602 20.856C79.332 20.856 78.918 21.3403 78.918 22.3091H75.6016C75.6016 21.1372 76.0391 20.1724 76.9141 19.4146C77.7969 18.6489 78.9102 18.2661 80.2539 18.2661C81.6445 18.2661 82.7188 18.6294 83.4766 19.356C84.2422 20.0747 84.625 21.106 84.625 22.4497V28.4146C84.6406 29.5083 84.7969 30.3638 85.0938 30.981V31.1802H81.7539ZM79.7969 28.813C80.1641 28.813 80.4766 28.7388 80.7344 28.5903C80.9922 28.4419 81.1836 28.2661 81.3086 28.063V25.4263H80.5117C79.9492 25.4263 79.5039 25.606 79.1758 25.9653C78.8555 26.3247 78.6953 26.8052 78.6953 27.4067C78.6953 28.3442 79.0625 28.813 79.7969 28.813ZM90.1445 18.5005L90.2383 19.6724C90.9805 18.7349 91.9609 18.2661 93.1797 18.2661C94.4453 18.2661 95.3398 18.8364 95.8633 19.9771C96.5898 18.8364 97.625 18.2661 98.9688 18.2661C101.188 18.2661 102.324 19.8013 102.379 22.8716V31.1802H99.0625V23.0825C99.0625 22.3481 98.9609 21.8247 98.7578 21.5122C98.5547 21.1997 98.2109 21.0435 97.7266 21.0435C97.1094 21.0435 96.6484 21.4224 96.3438 22.1802L96.3672 22.5786V31.1802H93.0508V23.106C93.0508 22.3794 92.9531 21.856 92.7578 21.5356C92.5625 21.2075 92.2148 21.0435 91.7148 21.0435C91.1445 21.0435 90.6914 21.3521 90.3555 21.9692V31.1802H87.0391V18.5005H90.1445ZM114.719 25.2388C114.719 27.231 114.375 28.7583 113.688 29.8208C113.008 30.8833 111.992 31.4146 110.641 31.4146C109.609 31.4146 108.781 30.9966 108.156 30.1606V36.0552H104.84V18.5005H107.91L108.027 19.6606C108.66 18.731 109.523 18.2661 110.617 18.2661C111.969 18.2661 112.984 18.7583 113.664 19.7427C114.352 20.7271 114.703 22.2349 114.719 24.2661V25.2388ZM111.414 24.4067C111.414 23.1802 111.277 22.313 111.004 21.8052C110.738 21.2974 110.285 21.0435 109.645 21.0435C108.965 21.0435 108.469 21.3286 108.156 21.8989V27.8403C108.453 28.3872 108.957 28.6606 109.668 28.6606C110.324 28.6606 110.777 28.3833 111.027 27.8286C111.285 27.2739 111.414 26.4106 111.414 25.2388V24.4067ZM120.203 31.1802H116.875V18.5005H120.203V31.1802ZM116.723 15.2192C116.723 14.7036 116.887 14.2817 117.215 13.9536C117.543 13.6255 117.98 13.4614 118.527 13.4614C119.074 13.4614 119.512 13.6255 119.84 13.9536C120.168 14.2817 120.332 14.7036 120.332 15.2192C120.332 15.7271 120.168 16.1489 119.84 16.4849C119.52 16.8208 119.082 16.9888 118.527 16.9888C117.973 16.9888 117.531 16.8208 117.203 16.4849C116.883 16.1489 116.723 15.7271 116.723 15.2192ZM122.383 24.4302C122.383 22.5083 122.836 21.0005 123.742 19.9067C124.648 18.813 125.902 18.2661 127.504 18.2661C129.121 18.2661 130.383 18.813 131.289 19.9067C132.195 21.0005 132.648 22.5161 132.648 24.4536V25.2622C132.648 27.1919 132.199 28.6997 131.301 29.7856C130.402 30.8716 129.145 31.4146 127.527 31.4146C125.902 31.4146 124.637 30.8716 123.73 29.7856C122.832 28.6919 122.383 27.1763 122.383 25.2388V24.4302ZM125.711 25.2622C125.711 27.5278 126.316 28.6606 127.527 28.6606C128.645 28.6606 129.246 27.7153 129.332 25.8247L129.344 24.4302C129.344 23.2739 129.184 22.4185 128.863 21.8638C128.543 21.3013 128.09 21.02 127.504 21.02C126.941 21.02 126.5 21.3013 126.18 21.8638C125.867 22.4185 125.711 23.2739 125.711 24.4302V25.2622ZM137.758 18.5005L137.852 19.7544C138.602 18.7622 139.582 18.2661 140.793 18.2661C142.973 18.2661 144.094 19.7935 144.156 22.8481V31.1802H140.828V23.0942C140.828 22.3755 140.719 21.856 140.5 21.5356C140.289 21.2075 139.914 21.0435 139.375 21.0435C138.773 21.0435 138.305 21.3521 137.969 21.9692V31.1802H134.641V18.5005H137.758Z" fill="#020532"/>
<mask id="path-7-inside-2" fill="white">
<path fill-rule="evenodd" clip-rule="evenodd" d="M25.329 3.72527C25.329 1.49949 23.4993 -0.331263 21.3065 0.0506828C9.21223 2.15732 0 13.0157 0 26.0941C0 40.6817 11.4608 52.5072 25.5985 52.5072C34.6362 52.5072 42.5801 47.6745 47.1352 40.377C48.6014 38.0281 46.6932 35.2692 43.9242 35.2692H29.329C27.1199 35.2692 25.329 33.4783 25.329 31.2692V3.72527Z"/>
</mask>
<path fill-rule="evenodd" clip-rule="evenodd" d="M25.329 3.72527C25.329 1.49949 23.4993 -0.331263 21.3065 0.0506828C9.21223 2.15732 0 13.0157 0 26.0941C0 40.6817 11.4608 52.5072 25.5985 52.5072C34.6362 52.5072 42.5801 47.6745 47.1352 40.377C48.6014 38.0281 46.6932 35.2692 43.9242 35.2692H29.329C27.1199 35.2692 25.329 33.4783 25.329 31.2692V3.72527Z" fill="#020532"/>
<path d="M2 26.0941C2 13.9592 10.5411 3.95597 21.6497 2.02102L20.9633 -1.91965C7.8834 0.358672 -2 12.0721 -2 26.0941H2ZM25.5985 50.5072C12.624 50.5072 2 39.6366 2 26.0941H-2C-2 41.7267 10.2977 54.5072 25.5985 54.5072V50.5072ZM45.4386 39.318C41.223 46.0715 33.8989 50.5072 25.5985 50.5072V54.5072C35.3735 54.5072 43.9371 49.2776 48.8318 41.436L45.4386 39.318ZM43.9242 33.2692H29.329V37.2692H43.9242V33.2692ZM27.329 31.2692V3.72527H23.329V31.2692H27.329ZM29.329 33.2692C28.2245 33.2692 27.329 32.3738 27.329 31.2692H23.329C23.329 34.5829 26.0153 37.2692 29.329 37.2692V33.2692ZM48.8318 41.436C50.0058 39.5552 49.8273 37.439 48.7942 35.8514C47.7843 34.2994 45.9834 33.2692 43.9242 33.2692V37.2692C44.634 37.2692 45.1717 37.6184 45.4416 38.0331C45.6883 38.4122 45.7307 38.8499 45.4386 39.318L48.8318 41.436ZM21.6497 2.02102C22.3972 1.89081 23.329 2.50526 23.329 3.72527H27.329C27.329 0.493727 24.6013 -2.55334 20.9633 -1.91965L21.6497 2.02102Z" fill="#020532" mask="url(#path-7-inside-2)"/>
<defs>
<filter id="filter0_d" x="24.5156" y="13.8555" width="25.5312" height="25.1445" filterUnits="userSpaceOnUse" color-interpolation-filters="sRGB">
<feFlood flood-opacity="0" result="BackgroundImageFix"/>
<feColorMatrix in="SourceAlpha" type="matrix" values="0 0 0 0 0 0 0 0 0 0 0 0 0 0 0 0 0 0 127 0"/>
<feOffset dy="4"/>
<feGaussianBlur stdDeviation="2"/>
<feColorMatrix type="matrix" values="0 0 0 0 0 0 0 0 0 0 0 0 0 0 0 0 0 0 0.25 0"/>
<feBlend mode="normal" in2="BackgroundImageFix" result="effect1_dropShadow"/>
<feBlend mode="normal" in="SourceGraphic" in2="effect1_dropShadow" result="shape"/>
</filter>
</defs>
</svg>
